<mxfile host="Electron" modified="2024-06-30T02:52:21.993Z" agent="Mozilla/5.0 (Windows NT 10.0; Win64; x64) AppleWebKit/537.36 (KHTML, like Gecko) draw.io/24.5.3 Chrome/124.0.6367.207 Electron/30.0.6 Safari/537.36" etag="hR6uyGxJIEHsXWkja8_9" version="24.5.3" type="device">
  <diagram id="C5RBs43oDa-KdzZeNtuy" name="Page-1">
    <mxGraphModel dx="1098" dy="838" grid="1" gridSize="10" guides="1" tooltips="1" connect="1" arrows="1" fold="1" page="1" pageScale="1" pageWidth="827" pageHeight="1169" math="0" shadow="0">
      <root>
        <mxCell id="WIyWlLk6GJQsqaUBKTNV-0" />
        <mxCell id="WIyWlLk6GJQsqaUBKTNV-1" parent="WIyWlLk6GJQsqaUBKTNV-0" />
        <mxCell id="wkQEfYrQqS8X1TFdwXOB-7" style="edgeStyle=orthogonalEdgeStyle;rounded=0;orthogonalLoop=1;jettySize=auto;html=1;exitX=0.5;exitY=1;exitDx=0;exitDy=0;entryX=0.5;entryY=0;entryDx=0;entryDy=0;" edge="1" parent="WIyWlLk6GJQsqaUBKTNV-1" source="wkQEfYrQqS8X1TFdwXOB-0" target="wkQEfYrQqS8X1TFdwXOB-2">
          <mxGeometry relative="1" as="geometry" />
        </mxCell>
        <mxCell id="wkQEfYrQqS8X1TFdwXOB-0" value="Start" style="ellipse;whiteSpace=wrap;html=1;" vertex="1" parent="WIyWlLk6GJQsqaUBKTNV-1">
          <mxGeometry x="354" y="312" width="120" height="80" as="geometry" />
        </mxCell>
        <mxCell id="wkQEfYrQqS8X1TFdwXOB-8" style="edgeStyle=orthogonalEdgeStyle;rounded=0;orthogonalLoop=1;jettySize=auto;html=1;exitX=0.5;exitY=1;exitDx=0;exitDy=0;entryX=0.5;entryY=0;entryDx=0;entryDy=0;" edge="1" parent="WIyWlLk6GJQsqaUBKTNV-1" source="wkQEfYrQqS8X1TFdwXOB-2" target="wkQEfYrQqS8X1TFdwXOB-4">
          <mxGeometry relative="1" as="geometry" />
        </mxCell>
        <mxCell id="wkQEfYrQqS8X1TFdwXOB-2" value="Leer x" style="shape=parallelogram;perimeter=parallelogramPerimeter;whiteSpace=wrap;html=1;fixedSize=1;" vertex="1" parent="WIyWlLk6GJQsqaUBKTNV-1">
          <mxGeometry x="354" y="442" width="120" height="60" as="geometry" />
        </mxCell>
        <mxCell id="wkQEfYrQqS8X1TFdwXOB-9" style="edgeStyle=orthogonalEdgeStyle;rounded=0;orthogonalLoop=1;jettySize=auto;html=1;exitX=0.5;exitY=1;exitDx=0;exitDy=0;entryX=0.5;entryY=0;entryDx=0;entryDy=0;" edge="1" parent="WIyWlLk6GJQsqaUBKTNV-1" source="wkQEfYrQqS8X1TFdwXOB-4" target="wkQEfYrQqS8X1TFdwXOB-5">
          <mxGeometry relative="1" as="geometry" />
        </mxCell>
        <mxCell id="wkQEfYrQqS8X1TFdwXOB-4" value="x++" style="shape=process;whiteSpace=wrap;html=1;backgroundOutline=1;" vertex="1" parent="WIyWlLk6GJQsqaUBKTNV-1">
          <mxGeometry x="354" y="552" width="120" height="60" as="geometry" />
        </mxCell>
        <mxCell id="wkQEfYrQqS8X1TFdwXOB-10" style="edgeStyle=orthogonalEdgeStyle;rounded=0;orthogonalLoop=1;jettySize=auto;html=1;exitX=0.5;exitY=1;exitDx=0;exitDy=0;entryX=0.5;entryY=0;entryDx=0;entryDy=0;" edge="1" parent="WIyWlLk6GJQsqaUBKTNV-1" source="wkQEfYrQqS8X1TFdwXOB-5" target="wkQEfYrQqS8X1TFdwXOB-6">
          <mxGeometry relative="1" as="geometry" />
        </mxCell>
        <mxCell id="wkQEfYrQqS8X1TFdwXOB-5" value="return x" style="rounded=0;whiteSpace=wrap;html=1;" vertex="1" parent="WIyWlLk6GJQsqaUBKTNV-1">
          <mxGeometry x="354" y="662" width="120" height="60" as="geometry" />
        </mxCell>
        <mxCell id="wkQEfYrQqS8X1TFdwXOB-6" value="End" style="ellipse;whiteSpace=wrap;html=1;" vertex="1" parent="WIyWlLk6GJQsqaUBKTNV-1">
          <mxGeometry x="354" y="777" width="120" height="80" as="geometry" />
        </mxCell>
      </root>
    </mxGraphModel>
  </diagram>
</mxfile>
